# xmcd
#
# Track frame offsets:
#	150
#	21455
#	33930
#	55877
#	69242
#	86427
#	102307
#	119262
#	138397
#	160942
#	174630
#	188630
#	207627
#	220380
#	237620
#	252705
#
# Disc length: 3664 seconds
#
# Revision: 5
# Processed by: cddbd v1.5PL3 Copyright (c) Steve Scherf et al.
# Submitted via: EasyCDDAExtractor 5.1.0
#
DISCID=ef0e4e10
DTITLE=Julio Iglesias - Begin The Beguine
DYEAR=1990
DGENRE=Ballad
TTITLE0=Begin The Beguine
TTITLE1=Quiereme
TTITLE2=Me Olvide De Vivir
TTITLE3=Por Un Poco De Tu Amor
TTITLE4=Grande, Grande, Grande
TTITLE5=Como Tú
TTITLE6=Guantanamera
TTITLE7=Quiereme Mucho (Yours)
TTITLE8=Hey
TTITLE9=Un Dia Tu, Un Dia Yo
TTITLE10=Soy Un Truhan, Soy Un Señor
TTITLE11=Candilejas
TTITLE12=El Amor
TTITLE13=33 Años
TTITLE14=Isla En El Sol
TTITLE15=Preguntale
EXTD=ID3G: 116
EXTT0=
EXTT1=
EXTT2=
EXTT3=
EXTT4=
EXTT5=
EXTT6=
EXTT7=
EXTT8=
EXTT9=
EXTT10=
EXTT11=
EXTT12=
EXTT13=
EXTT14=
EXTT15=
PLAYORDER=
